<svg xmlns="http://www.w3.org/2000/svg" width="1080" viewBox="0 0 810 810" height="1080" version="1.0"><defs><clipPath id="a"><path d="M264 691h80v86h-80Zm0 0"/></clipPath><clipPath id="b"><path d="m275.402 676.57 77.5 28.282-28.027 76.796-77.5-28.285Zm0 0"/></clipPath><clipPath id="c"><path d="m275.402 676.57 77.5 28.282-28.027 76.796-77.5-28.285Zm0 0"/></clipPath><clipPath id="d"><path d="M268 695h71v79h-71Zm0 0"/></clipPath><clipPath id="e"><path d="m275.402 676.57 77.5 28.282-28.027 76.796-77.5-28.285Zm0 0"/></clipPath><clipPath id="f"><path d="m275.402 676.57 77.5 28.282-28.027 76.796-77.5-28.285Zm0 0"/></clipPath><clipPath id="g"><path d="M268 695h72v78h-72Zm0 0"/></clipPath><clipPath id="h"><path d="m275.402 676.57 77.5 28.282-28.027 76.796-77.5-28.285Zm0 0"/></clipPath><clipPath id="i"><path d="m275.402 676.57 77.5 28.282-28.027 76.796-77.5-28.285Zm0 0"/></clipPath></defs><path fill="#fff" d="M404.578 121.086c-156.844 0-283.98 127.152-283.98 283.98 0 156.832 127.152 283.98 283.98 283.98 156.828 0 283.98-127.148 283.98-283.98 0-156.828-127.132-283.98-283.98-283.98Zm-1.45 182.062c11.388 0 20.634 9.23 20.634 20.633 0 11.387-9.227 20.633-20.633 20.633-11.383 0-20.633-9.23-20.633-20.633.02-11.402 9.25-20.633 20.633-20.633Zm-.788 53.832c26.812 0 48.558 21.743 48.558 48.56 0 26.815-21.746 48.558-48.558 48.558-26.817 0-48.563-21.743-48.563-48.559s21.746-48.559 48.563-48.559Zm78.02 114.5c0 11.387-9.231 20.633-20.637 20.633-11.383 0-20.633-9.23-20.633-20.633 0-11.386 9.23-20.632 20.633-20.632 11.406 0 20.636 9.246 20.636 20.632Zm-20.637-86.558c0-11.387 9.23-20.633 20.636-20.633 11.383 0 20.633 9.23 20.633 20.633 0 11.387-9.23 20.633-20.633 20.633-11.386 0-20.636-9.246-20.636-20.633Zm-105.946 65.926c11.387 0 20.637 9.23 20.637 20.632 0 11.387-9.23 20.633-20.637 20.633-11.382 0-20.632-9.23-20.632-20.633 0-11.386 9.23-20.632 20.632-20.632Zm-31.867-45.293c-11.387 0-20.633-9.23-20.633-20.633 0-11.387 9.23-20.633 20.633-20.633 11.387 0 20.633 9.23 20.633 20.633 0 11.387-9.246 20.633-20.633 20.633Zm32.106-259.422 8.824 125.988s10.074 66.77-64.258 57.961l-123.46-54.172s34.007-107.09 178.894-129.777ZM203.062 573.738s-86.96-65.62-61.039-204.496l118.04 32.86s64.292 12.5 32.304 77.128ZM285.212 637l69.328-111.82s32.066-62.66 91.07-8.575l73.875 123.176c0-.02-94.894 68.989-234.273-2.781Zm325.363-61.105-89.32-88.364s-51.473-43.203 11.27-86.488l130.113-42.313c-.016 0 44.097 102.965-52.063 217.165Zm-92.402-252.012s-60.235 30.52-75.192-42.817l12.704-134.226s112.343-1.297 179.347 129.156Zm0 0"/><path d="M405.035 0C181.335 0 0 181.336 0 405.035 0 628.73 181.336 810.066 405.035 810.066c223.695 0 405.031-181.336 405.031-405.03C810.066 181.335 628.73 0 405.036 0Zm-.457 689.063c-156.844 0-283.98-127.149-283.98-283.977 0-156.832 127.152-283.98 283.98-283.98 156.828 0 283.98 127.148 283.98 283.98 0 156.828-127.132 283.976-283.98 283.976ZM298.582 330.082l-123.46-54.172s34.023-107.09 178.894-129.762l8.824 125.993c0-.02 10.074 66.75-64.258 57.941Zm336.45-54.102-116.86 47.903s-60.235 30.52-75.192-42.817l12.704-134.226s112.343-1.313 179.347 129.14ZM532.503 401.043 662.62 358.73s44.113 102.965-52.062 217.165l-89.32-88.364c.015 0-51.458-43.203 11.265-86.488Zm-86.895 115.543 73.875 123.176S424.59 708.77 285.211 637l69.328-111.82s32.05-62.66 91.07-8.594ZM292.352 479.21l-89.29 94.527s-86.96-65.62-61.039-204.496l118.04 32.86c0-.016 64.292 12.5 32.289 77.109Zm61.425-73.656c0-26.813 21.746-48.559 48.563-48.559 26.812 0 48.558 21.746 48.558 48.559 0 26.816-21.746 48.562-48.558 48.562-26.817 0-48.563-21.746-48.563-48.562Zm28.739-81.774c0-11.386 9.23-20.633 20.632-20.633 11.387 0 20.633 9.23 20.633 20.633 0 11.387-9.23 20.633-20.633 20.633-11.402 0-20.632-9.246-20.632-20.633Zm97.843 81.774c-11.386 0-20.636-9.23-20.636-20.633 0-11.387 9.23-20.633 20.636-20.633 11.383 0 20.633 9.23 20.633 20.633 0 11.387-9.23 20.633-20.633 20.633ZM333.145 471.48c0-11.386 9.23-20.632 20.632-20.632 11.387 0 20.637 9.23 20.637 20.632 0 11.387-9.23 20.633-20.637 20.633-11.402 0-20.632-9.23-20.632-20.633Zm9.398-86.558c0 11.387-9.23 20.633-20.633 20.633-11.387 0-20.633-9.23-20.633-20.633 0-11.387 9.23-20.633 20.633-20.633 11.387 0 20.633 9.246 20.633 20.633Zm117.18 65.926c11.386 0 20.636 9.23 20.636 20.632 0 11.387-9.23 20.633-20.636 20.633-11.383 0-20.633-9.23-20.633-20.633.02-11.386 9.25-20.632 20.633-20.632Zm0 0"/><path d="m223.57 77.325 15.53-7.843c4.95-2.489 9.282-3.032 13-1.625 3.727 1.406 6.868 4.64 9.422 9.703l15.938 31.61c2.55 5.062 3.281 9.511 2.187 13.343-1.086 3.836-4.101 6.996-9.047 9.484l-15.53 7.844Zm14.312 3.985 22.5 44.64 5.547-2.796c1.539-.77 2.535-1.829 2.984-3.172.445-1.344.098-3.145-1.047-5.407L251.491 82.06c-1.144-2.258-2.39-3.61-3.734-4.047-1.344-.438-2.785-.27-4.328.5ZM310.664 115.405a38.333 38.333 0 0 0-.812-1.094 12.156 12.156 0 0 1-.844-1.297c-.293-.53-.61-1.226-.953-2.093a91.15 91.15 0 0 1-1.203-3.282l-3.703-10.359c-1.094-3.082-2.403-5.062-3.922-5.937-1.524-.875-3.477-.883-5.86-.032l-3.578 1.266 9.563 26.844-10.36 3.687-23.468-65.953 15.64-5.562c5.407-1.926 9.758-2.063 13.063-.407 3.312 1.657 5.875 5.028 7.687 10.11l1.844 5.172c2.414 6.793 1.742 12.062-2.016 15.812 3.008.117 5.43 1.215 7.266 3.297 1.844 2.074 3.379 4.84 4.61 8.297l3.624 10.172c.57 1.625 1.141 3.027 1.704 4.203.562 1.18 1.316 2.308 2.265 3.39ZM279.227 62.89l7.219 20.266 4.046-1.437c1.958-.696 3.305-1.743 4.047-3.141.739-1.395.641-3.414-.297-6.063l-2.312-6.484c-.855-2.383-1.898-3.96-3.125-4.734-1.23-.77-2.758-.832-4.578-.188ZM332.68 98.178l2.64 10.266-10.265 2.625-2.64-10.266ZM359.402 66.103l1.094 37.485-14.969 2.047-17.218-68.297 10.609-1.453L352.23 89.79l-2.218-55.422 10.5-1.437 12.984 54.343-1.89-55.86 9.515-1.296 1.75 70.406-14.453 1.985ZM403.561 100.25l-11-.187 1.172-69.985 11 .188-.5 29.984 12.5.203.5-29.984 11.203.188-1.172 69.984-11.203-.188.5-30-12.5-.203ZM448.843 62.634l14.938 2.094-1.391 9.906-14.937-2.094-2.844 20.297 18.812 2.641-1.39 9.906-29.703-4.156L442.03 31.9l29.703 4.156-1.375 9.906-18.813-2.64ZM486.827 69.779l14.61 3.765-2.5 9.688-14.61-3.766-5.125 19.844 18.39 4.75-2.5 9.687-29.046-7.5 17.5-67.78 29.047 7.5-2.5 9.687-18.39-4.75ZM523.83 49.686l10.297 3.89-21.235 56.11 16.922 6.406-3.547 9.36-27.219-10.297ZM551.357 78.445c2.582-5.04 5.766-8.297 9.547-9.766 3.781-1.468 8.07-.972 12.875 1.485 4.82 2.46 7.742 5.652 8.766 9.578 1.031 3.93.254 8.414-2.328 13.453l-1.219 2.406-9.266-4.734 1.547-3.031c1.145-2.25 1.52-4.051 1.125-5.407-.386-1.351-1.355-2.425-2.906-3.218-1.531-.79-2.965-.946-4.297-.47-1.336.481-2.574 1.845-3.719 4.095-1.093 2.148-1.586 4.28-1.468 6.406.113 2.117.507 4.262 1.187 6.437a113.572 113.572 0 0 0 2.36 6.688 49.916 49.916 0 0 1 2.171 7.11c.551 2.448.735 5.015.547 7.702-.18 2.688-1.023 5.516-2.531 8.485-2.586 5.039-5.797 8.281-9.64 9.718-3.837 1.446-8.153.942-12.954-1.515-4.812-2.461-7.765-5.664-8.86-9.61-1.085-3.957-.335-8.457 2.25-13.5l2.173-4.28 9.265 4.734-2.5 4.906c-1.148 2.25-1.492 4.058-1.03 5.422.468 1.355 1.476 2.43 3.03 3.218 1.54.782 2.993.957 4.36.532 1.375-.418 2.633-1.75 3.781-4 1.094-2.145 1.582-4.274 1.469-6.39-.106-2.126-.5-4.274-1.188-6.454a115.817 115.817 0 0 0-2.36-6.703 50.326 50.326 0 0 1-2.155-7.094c-.555-2.445-.743-5.016-.563-7.703.176-2.695 1.02-5.531 2.531-8.5Zm0 0" fill="#fff"/><g clip-path="url(#a)"><g clip-path="url(#b)"><g clip-path="url(#c)"><path fill="#4a71f6" d="M342.754 731.043c.2-1.074.703-1.602.273-2.746-.214-.512-.105-1.098-.39-1.55-.301-.368-.516-.778-.867-1.099-.45-.476-1.016-.734-1.543-1.101-.387-.313-.82-.508-1.293-.645-.282-.277-.664-.312-1.024-.425-.758-.258-1.48-.61-2.285-.73-1.379-.45-2.773-.962-4.254-1.048-.805.02-1.379-.644-2.191-.558-.508.109-.907-.368-1.403-.34-.414.043-.797-.098-1.175-.203-.258-.059-.52-.102-.727-.297-.09-.086-.219-.114-.352-.13-.554.04-1.062-.128-1.558-.343-.219-.113-.438.016-.66-.05-.352-.13-.785-.079-1.04-.43-.019-.043-.097-.07-.152-.055-.254.027-.441-.129-.66-.242-.523-.328-2.09-.172-2.27-.864-.238-.867.415-1.707.008-2.546-.058-.13-.086-.293-.007-.407.27-.453.125-1.011.351-1.484a.377.377 0 0 0-.004-.277c-.097-.211-.05-.383.078-.547.04-.055.082-.125.07-.2-.019-.456.09-.906.114-1.347.008-.309.008-.64.117-.895.254-.601.16-1.242.258-1.851.043-.262.133-.504.172-.75.05-.332-.14-.66.043-.977-.195-.61.074-1.203.062-1.832.051-.625-.03-1.246.157-1.855.035-.196.101-.38-.043-.551-.086-.102-.008-.215.043-.316.117-.22.23-.438.14-.711-.015-.059.016-.133.035-.196.063-.168.118-.324.02-.48-.035-.047-.043-.121-.012-.16.18-.246.082-.508.04-.766-.102-.297.128-.543.054-.816-.168-.442-.008-.938-.23-1.368.167-.511-.372-.605-.489-.992.07-.199.215-.445.184-.648-.074-.371-.117-.77-.438-1.043-.183-.156-.289-.348-.183-.586.027-1.07-1.336-2.328-2.286-2.676-.921-.234-1.816-.543-2.785-.46-.484.046-.957.152-1.43.206-1.277.176-2.327.957-3.437 1.524-.668.258-1.015.879-1.633 1.191-.683.305-1.117.965-1.73 1.367-.594.2-.86.778-1.3 1.137.026.305-.227.336-.423.438-.554.386-1.086.835-1.426 1.44-.718.536-1.445 1.052-2.043 1.74-.12.144-.132.366-.27.456-.413.281-.745.664-1.124.992-.363.32-.762.61-1.012 1.055-.035.094-.105.152-.21.203-.364.18-.563.489-.692.84-.043.125-.09.246-.2.309-.488.203-.753.644-1.081 1.011-.207.239-.512.407-.637.707-.168.457-.82.395-.848.942-.023.164-.105.289-.265.351-.278.141-.496.36-.723.555-.281.242-.453.613-.727.895-.023.394-.445.742-.824.586-.703-.395-1.543.183-2.21-.356-.169-.164-.45-.008-.65-.133-.405-.215-.816 0-1.284 0-.371-.742-1.286-.136-1.848-.64-.113-.075-.285.02-.41-.063-.36-.25-.805-.223-1.207-.265-.281-.036-.59.046-.82-.176-.04-.035-.137-.051-.188-.055-.36.027-.664-.277-1.04-.203-.304-.25-.706-.156-1.058-.281-.445-.164-.925-.32-1.43-.227-.054.012-.109-.023-.156-.043-.347-.195-.746-.047-1.101-.176a.527.527 0 0 0-.547-.058c-.613.156-1.188-.367-1.832-.219a.708.708 0 0 1-.41-.063c-.485-.246-1.02-.058-1.52-.12-.855-.227-1.75-.153-2.586-.387a.905.905 0 0 0-.8.054c-.262.149-.497.078-.68-.129-.145-.171-.336-.226-.52-.152-.644.25-1.3-.094-1.933.074-2.485 1.004-4.29 1.805-3.078 4.868.27.773.601 1.539.945 2.304.125.274.41.446.48.73.22.587.547 1.122.856 1.65.133.206.074.464.187.679.332.797.809 1.492 1.34 2.172.262.476.524.953.844 1.402.508.793 1.129 1.523 1.59 2.352.379.726 1.07 1.203 1.39 1.945.23.555.649.984.989 1.473.398.441.523 1.093 1.027 1.468.098.157.09.328.246.473.64.668.934 1.574 1.504 2.3.445.442.652 1.02.941 1.56.196.417-.308.792-.527 1.109-.746.664-1.242 1.543-1.914 2.254-.305.254-.539.566-.719.918-.156.289-.355.546-.59.757-.484.43-.796.993-1.16 1.52-.304.445-.523.953-.922 1.332-.144.156-.257.32-.343.516-.586 1.226-1.442 2.285-2.055 3.484-.34.695-.816 1.336-1.14 2.031-.59.672-.743 1.606-1.282 2.278a1.01 1.01 0 0 0-.332.574c-.195.726-.559 1.39-.8 2.101-.227.664-.594 1.293-.5 2.04-.223.753-.173 1.515-.087 2.277a.43.43 0 0 0 .067.199c.52.57-.125 1.535.656 1.957.094.035.11.129.133.207.101.434.398.719.77.938.097.07.183.207.32.171.3-.066.414.149.554.34.051.09.098.157.203.196.293.105.57.296.895.308.09 0 .172.012.23.086.157.195.36.2.61.188.215-.028.36.25.613.171.137-.039.242-.05.344.055.75.324 1.504-.32 2.242-.242.387.039.785-.008 1.133-.211.18-.105.379-.227.586-.219.8-.054 1.418-.648 2.207-.722.25-.012.5-.078.726-.184.778-.363 1.555-.687 2.391-.883 1.188-.312 2.258-.914 3.426-1.3.535-.137 1.039-.422 1.55-.633 2.305-1.036 4.68-1.887 7.008-2.844 1.02-.32 2.047-.656 2.993-1.164.152-.082.261.097.246.23.015.387.168.739.336 1.078.605.864.523 1.996 1.199 2.848.07.098.16.184.117.305-.113.304.02.613.184.832.332.414.332.937.496 1.394.156.473.324.918.593 1.328.079.114.176.223.172.375-.027.407.211.754.348 1.098.395.875.598 1.836 1.11 2.664.097.313.18.602.374.883.055.09.121.184.13.309.007.453.519.62.577 1.078.149.402.258.82.567 1.16.058.074.137.152.152.246.125.566.617.887.899 1.351.199.543.449 1.051.761 1.528.348.562.559 1.23 1.172 1.594.117.058.215.164.207.336-.02.289.145.453.363.617.708.398 1.067 1.12 1.727 1.55.383.278.645.704 1.074.915.188.101.328.238.489.367.293.246.566.539.949.68.554.199 1.078.476 1.652.566.211.043.383.14.559.273.226.188.465.395.742.446 1.469.394 2.55-.336 3.848-.891.378-.137.664-.348.785-.77.11-.343.308-.652.273-1.03.274-.61.692-1.24.625-1.958-.015-.195-.058-.406.024-.582.293-.52.261-1.05.171-1.621.086-.8.336-1.578.282-2.379.008-.45.199-.883.129-1.36-.028-.253-.086-.57.023-.773.195-.347.164-.687.203-1.035.09-.957-.027-1.922.078-2.875.051-.379-.03-.773-.039-1.176.047-.937.153-1.851.082-2.797-.078-1.835.11-3.675.047-5.503-.004-.61-.015-1.188.067-1.801.046-.363.097-.746-.024-1.121-.047-.157-.094-.313-.078-.496.059-.88-.05-1.77-.004-2.657.016-.375.05-.66.399-.859.308-.219.687.023.964-.258.403-.199.899-.226 1.29-.449.386-.293.964-.066 1.214-.512.047-.086.11-.117.188-.14 1.168-.301 2.324-.75 3.46-1.203.372-.16.766-.243 1.067-.547.445-.078.871-.29 1.3-.426.427-.211.778-.656 1.27-.668.454-.059.793-.317 1.141-.555.297-.293.77-.117 1.066-.41.329-.277.645-.477 1.09-.555.75-.199 1.418-.699 2.086-1.097.188-.09.387-.157.485-.38.035-.093.113-.116.214-.112.567.066.836-.442 1.235-.676.133-.074.234-.211.39-.258.079-.024.157-.047.215-.113.383-.434.961-.637 1.301-1.141.086-.14.317-.059.399-.184.109-.254.402-.34.578-.535.402-.445.879-.793 1.257-1.261.223-.282.387-.637.735-.825.265-.582.793-1.03.883-1.707Zm0 0"/></g></g></g><g clip-path="url(#d)"><g clip-path="url(#e)"><g clip-path="url(#f)"><path fill="#fff" d="M338.691 731.227c-.718-1.164-2.191-1.461-3.472-1.563-.594.008-1.211-.441-1.79-.234-.316.11-.55.074-.824-.078-.734-.215-1.46-.516-2.214-.684-.555-.379-1.227-.398-1.844-.606-.625-.332-1.328-.312-1.977-.53-.902-.243-1.777-.65-2.73-.75-1.211-.255-2.43-.575-3.633-.895a22.188 22.188 0 0 1-3.883-1.051c-.664-.332-1.558-.258-1.894-1.094.543-.199.832-.804.836-1.344.004-.101-.04-.222.03-.316.27-.316-.085-.676.048-.988.152-.278.023-.637.258-.899.003-.535-.118-1.101.128-1.636.204-.793.387-1.579.348-2.426-.043-2.36.024-4.73-.015-7.086.062-1.176.167-2.371.523-3.488.207-.38.05-.801.234-1.168.395-.844.403-1.762.614-2.676.332-2.34.761-3.469-.957-5.469-.247-.367-.657-.238-1.032-.219-.535-.144-.59.477-.754.836-.039.106-.078.215-.207.235-.496.117-.843.457-1.23.75-.223.23-.578.207-.75.488-.39.45-.863.797-1.363 1.117-.485.328-.848.75-1.102 1.266-.05.136-.117.27-.226.336-.286.207-.454.476-.61.765-.035.09-.086.18-.203.168-.344-.004-.527.262-.754.453-.3.258-.629.485-.785.864-.14.101-.32.125-.426.312-.918 1.035-2.035 1.914-2.844 3.04-.328.558-.843.925-1.265 1.413-.762 1.043-1.567 2.067-2.492 2.98-.688.981-1.45 1.97-2.313 2.817-.664.488-1.086 1.219-1.726 1.735-.086.332-.368.488-.63.671-.554.528-.699-.273-1.19.036-.184.12-.368.054-.466-.102-.37-.465-1.109-.441-1.484-.887-.27-.308-.71-.383-.898-.765-.442-.125-.762-.434-1.192-.59a5.957 5.957 0 0 1-1.89-1.055c-.489-.37-1.114-.562-1.497-1.086-.347-.281-.882-.199-1.195-.574-.293-.105-.644-.094-.933-.2-.692-.34-1.485-.265-2.184-.59-.656-.1-1.36-.026-2.02-.269-.304-.109-.636-.058-.957-.035-.367.004-.726-.11-1.07-.062-.777.082-1.535-.074-2.3-.024-.641.133-1.259-.023-1.86-.14-.66-.137-1.34-.227-2.008-.348-1.191-.16-2.598-.828-3.652.02-.258.234-.262.336.004.558.832.77 1.964.992 2.918 1.516.515.394 1.02.82 1.507 1.242 1.11 1.344 2.239 2.676 3.266 4.09.207.336.524.61.754.937.172.235.242.52.437.75 1.141 1.145 1.778 2.645 2.954 3.75.5.34.82.89 1.148 1.375.27.496.824.735 1.012 1.27.004.039.062.058.094.07.308.113.48.348.582.645.054.18.171.289.351.32.145.035.285.07.332.227.332.902 1.418 1.351 1.348 2.402-.008.5-.113 2.351-.836 2.246-.277-.102-.594-.094-.832-.34-.61-.566-.914.606-1.465.735-.48.554-.867 1.226-1.531 1.628-.207.133-.242.414-.426.54-.453.25-.7.734-1.121 1.03-.164.114-.309.27-.387.485-1.187 1.598-2.566 3.09-3.625 4.805-.375.922-1.074 1.656-1.445 2.578-.317.441-.504.996-.805 1.39-.258.235-.312.618-.531.883-.563.594-.668 1.457-1.188 2.067-.808 1.129-1.437 2.375-2.015 3.62-.41.895-.996 1.688-1.332 2.606-.145.54.031.965.535 1.203.152.055.238.157.277.325.156.527.434.957.985 1.16a.61.61 0 0 0 .468-.004c1.2-.379 1.922-1.695 3.278-1.652a.97.97 0 0 0 .41-.075c.742-.32 1.558-.422 2.242-.867.066-.043.16-.062.238-.086.637-.078 1.14-.504 1.72-.707.698-.11 1.343-.449 2.022-.601a.369.369 0 0 0 .208-.133c.136-.278.421-.348.683-.406.496-.028.656-.649 1.149-.575.558.086.878-.457 1.394-.582.863-.277 1.633-.722 2.5-1 .152-.047.305-.129.434-.238.414-.422 1.113-.203 1.468-.7.055-.1.157-.097.262-.093.418-.004.695-.336 1.063-.445.21-.047.418-.09.515-.317.035-.09.13-.109.227-.09.508.083.75-.3 1.172-.457.617-.175 1.18-.472 1.73-.792.719-.45 1.559-.56 2.297-.915.113-.082.242-.101.399-.097.644.043 1.171-.406 1.8-.367.617-.07.766.52 1.211.77.106.038.2.124.23.226.134.304.41.496.68.664.383.226.586.629.922.89.055.04.09.137.114.215.14.57.386 1.078.699 1.559.054.086.133.203.117.3-.094.4.293.575.418.9.113.304.125.655.402.894.031.011.04.082.028.113-.028.219.093.363.187.539.277.516.281 1.125.602 1.625.425.883.64 1.812.925 2.75.141.61.696 1.035.622 1.719-.024.062.035.136.066.199.18.605.473 1.18.59 1.812.449.86.773 1.778 1.082 2.688.449 1.293 1.187 2.465 1.578 3.77-.54-.528-.703-1.317-1.305-1.848-.101.988-.886 1.379-1.488.465-.168-.356-.45-.633-.492-1.032-.055-.14-.278-.293-.293-.437.015-.426-.242-.625-.48-.922-.11-.508-.376-.969-.544-1.465-.093-.262-.105-.558-.304-.773-.274-.254-.371-.602-.559-.895-.613-1.039-.871-2.23-1.785-3.101.027.586.57.957.465 1.578-.078.543.37.933.422 1.457a.477.477 0 0 0 .113.316c.117.149.16.32.18.5a3.76 3.76 0 0 0 .562 1.594.82.82 0 0 1 .156.387c.125.707.536 1.289.739 1.972.023.215.27.305.359.492.367.657.758 1.301 1.055 2.004.175.477.636.735.812 1.196.067.199.192.383.352.511.625.438 1.054 1.063 1.43 1.704.46.496.914 1.011 1.464 1.402.223.152.453.285.739.27.761.05.27 1.261 2.21 1.55.778.149.981-.734 1.485-1.12.66-.579.98-1.4 1.07-2.266.055-.243.098-.504.028-.739-.059-.176-.047-.347-.016-.527.23-.922-.184-1.836-.129-2.738.11-1.02-.176-2.043.04-3.059-.216-.79-.122-1.57-.11-2.363 0-.055.039-.11.054-.157.204-.273.04-.628.145-.918.27-.597-.234-1.214.144-1.769.286-.645-.02-1.379.29-2.031a.555.555 0 0 0-.032-.446c-.273-.671.196-1.336-.004-2.03-.082-.294.079-.598.196-.868.078-.875.086-1.758.043-2.64.058-.344-.059-.7.062-1.02a1.05 1.05 0 0 0 .055-.395c-.106-.664.16-1.297.18-1.965.05-.468.113-.933.09-1.39a.739.739 0 0 1 .163-.496c.243-.328.5-.653.63-1.055a.472.472 0 0 1 .253-.273c.414-.18.531-.692.922-.86.469-.23 1.008-.191 1.504-.355.906-.399 1.813-.832 2.766-1.11 1.675-.5 3.37-1.007 5.023-1.586.442-.308.996-.261 1.457-.476 1.848-.922 3.676-1.887 5.578-2.684.27-.113.524-.246.692-.46.304-.41.75-.63 1.14-.938.547-.41 1.262-.512 1.79-.961.581-.59 1.894-1.238 1.316-2.176Zm0 0"/></g></g></g><g clip-path="url(#g)"><g clip-path="url(#h)"><g clip-path="url(#i)"><path fill="#004aad" d="M338.555 729.754c.82-.727.867-2.098.183-2.938-.164-.214-.34-.347-.629-.316-.168.027-.336-.035-.488-.09-.566-.258-1.2-.23-1.781-.441-.485-.301-1.067-.078-1.524-.348-.34-.21-.78-.2-1.097-.473-.461-.113-.969-.003-1.367-.34-.055-.038-.122-.046-.211-.042-1.332-.246-2.657-.711-3.926-1.227-.395-.246-.89-.219-1.305-.422-.187-.105-.383-.14-.598-.168-.253-.023-.507-.082-.765-.14-.242-.051-.36-.25-.586-.301-.934-.34-1.895-.516-2.867-.75-.848-.293-1.688-.563-2.574-.696-.84-.082-1.567-.609-2.422-.554-.086.004-.18.02-.239-.055-.12-.2-.296-.281-.511-.308-.086-.012-.137-.102-.16-.18-.133-.36-.36-.633-.637-.871-.5-.446-.016-1.102-.074-1.66.058-1.54.355-3.063.43-4.598.07-1.242.218-2.457.37-3.684.118-.742.38-1.511.309-2.27-.11-.316.121-.612.133-.937.004-.675.148-1.355.156-2.047.004-.242.168-.457.098-.691-.094-.312-.02-.562.101-.848.16-.914.074-1.867.168-2.789.04-.73.203-1.468-.055-2.187-.054-.176-.097-.348-.05-.524.078-.648-.754-.933-1.25-1.047-1.649-.425-2.766.208-4.117 1.051-.645.39-1.133 1.012-1.778 1.399-.383.242-.668.59-1.078.77-.39.308-.77.675-1.203.917.543-.965 2.133-1.898 1.863-3.105-.125-.324-.402-.235-.574 0-.39.36-.742.75-1.152 1.07-.875.637-1.5 1.535-2.368 2.156-.05.035-.078.114-.113.168-.027.074-.062.168-.156.188-.395.133-.508.578-.8.816-.579.399-.884 1.035-1.391 1.473-.352.305-.454.824-.891 1.062-.094.07-.117.325-.242.383-.223.09-.305.305-.438.48a35.397 35.397 0 0 1-1.527 1.997c-.817 1.054-1.527 2.289-2.442 3.273-.195.156-.34.313-.425.54-.051.14-.11.308-.266.355-.531.172-.754.68-1.144.988a5.168 5.168 0 0 0-.918.95c-.141.19-.372.35-.602.32-.344-.06-.703.019-1.027-.184a.42.42 0 0 0-.243-.055c-.765.051-1.453-.445-2.187-.328-.43.086-.734-.46-1.227-.207-.105.05-.222-.012-.324-.066-.699-.41-1.48-.504-2.25-.684-.293-.055-.594-.129-.883-.2-.507-.132-1.086-.015-1.535-.402-.785.008-1.492-.335-2.234-.539a3.951 3.951 0 0 0-1.469-.207c-.25.016-.562.02-.773-.21-.036-.047-.125-.047-.2-.075-.316-.082-.64-.199-.976-.129-.094.016-.215-.027-.317-.082a.935.935 0 0 0-.53-.07c-.407.023-.786-.133-1.196-.195-.578-.176-1.211-.059-1.797-.223-.254-.059-.512-.117-.789-.027a.202.202 0 0 1-.2-.02c-.507-.219-1.05-.21-1.597-.183-1.125-.204-2.207.34-2.894 1.218-.164.215-.399.426-.34.742.12.618.254 1.258.816 1.668.07.043.149.11.156.18.02.336.22.602.36.88.41.964 1 1.823 1.636 2.644.38.625.778 1.257 1.196 1.859.762 1.008 1.312 2.164 2.215 3.066.449.91 1.199 1.618 1.828 2.422.77.836 1.605 1.59 2.344 2.469.28.328.66.57.921.89.094.278.32.465.516.641.68.614 1.32 1.282 2.102 1.758-2.692 3.426-4.954 7.149-7.075 10.957-.816 1.527-1.918 3.07-2.507 4.692.074.027.16-.063.199.074-.23.629-.688 1.12-.989 1.703a19.484 19.484 0 0 1-1.242 2.117c-.148.223-.285.453-.36.703-.304.98-.89 1.828-1.054 2.844-.062.41.04.797.086 1.195.067.578.563.742.961.977.227.375.594.18.906.418-.03.23-.097.55.227.566.777.11 1.492-.183 2.238-.328a5.11 5.11 0 0 0 1.133-.387c.332-.156.766-.101 1.113-.34.242.09.48-.03.657-.14.312-.184.683-.254 1.011-.344.2-.207.48-.172.715-.242.656-.23 1.371-.387 1.945-.817.055-.05.118-.082.196-.05.36.058.629-.157.925-.305.145-.07.274-.18.45-.184a.395.395 0 0 0 .261-.097c.215-.164.48-.223.711-.328.313-.149.668-.121.946-.317.28-.191.582-.308.879-.46.468-.282.875-.583 1.441-.567.352-.063.684-.305.973-.531a.593.593 0 0 1 .464-.176c.106.004.2-.016.282-.055.504-.285 1.086-.453 1.562-.765.696-.426 1.442-.707 2.114-1.122 1.144-.574 2.378-1.007 3.378-1.84.247-.206.43-.226.579.036.445.633 1.175 1.054 1.23 1.91.047.293.023.648.324.863.055.04.059.125.051.192-.016.48.379.867.324 1.351-.004.207.235.313.285.504 1.356 3.758 2.551 7.563 4.172 11.211a35.767 35.767 0 0 0 1.559 3.152c.094.172.207.336.351.461.243.192.243.192.579-.015a62.483 62.483 0 0 1-3.297-7.04c.12-.003.172.048.187.106.133.484.563.832.621 1.336.043.172.297.23.27.45.012.16.086.288.23.374.075.032.149.11.153.196-.02.53.484.82.601 1.296.047.207.242.438.336.66.047.106.074.22.195.266.52.239.286.989.797 1.242.078.028.09.137.114.215.253.735.738 1.313 1.21 1.918.188.192.41.395.325.727-.016.047.031.097.066.144.219.41.625.82.75 1.23.027.407.418.622.453.997.403.566.825 1.117 1.2 1.707.16.23.453.285.62.488.399.473 1.055.348 1.598.426.239.016.524.086.668-.121.27-.352.723-.55.863-.988.254-.829.27-1.688.239-2.551.066-.567.289-1.125.238-1.7.008-.59.164-1.156.133-1.742-.016-.246.031-.507.062-.742.043-.312-.027-.633.082-.941.063-.168.043-.348.02-.531-.02-.18-.102-.383.07-.563a.2.2 0 0 0 .024-.164c-.059-.457.14-.906.023-1.348.195-.586-.066-1.203.137-1.804.09-.246.07-.567.07-.864 0-.328.16-.668.07-.945-.132-.394-.035-.758.02-1.105.07-.426.02-.86.066-1.278.09-1.39.082-2.832.32-4.203.188-.66.079-1.36.333-2 .105-.672.105-1.383.312-2.055a.679.679 0 0 0 .016-.375c-.07-.562.16-1.105.348-1.609a.972.972 0 0 0 .05-.57c-.082-.344-.027-.688.11-1.02.12-.324.343-.605.422-.957.18-.3.503-.527.773-.742 1.21-1.086 2.887-1.344 4.3-2.078.903-.434 1.848-.785 2.704-1.32 3.238-1.649 6.273-3.735 9.61-5.211-1.571 1.113-3.262 2.039-4.88 3.047-.968.601-1.957 1.125-2.886 1.777-.125.094-.286.156-.344.36.992-.192 1.754-.712 2.629-1.157 1.332-.695 2.664-1.406 3.992-2.086 2.363-1.344 4.918-2.543 6.605-4.742.188-.176.32-.403.153-.656Zm-31.785-29.309c.02.235-.07.29-.266.305.023-.168.09-.246.266-.305Zm-31.055 41.285c-.356.547-.727 1.09-1.094 1.618-.14.191-.164.441-.473.625 1.715-3.125 3.766-5.989 5.66-8.993 1.141-1.789 2.29-3.558 3.547-5.25.286.032.602.165.356.457-.816 1.145-1.746 2.211-2.504 3.391-.734.914-1.422 1.844-1.977 2.89-.312.477-.695.91-.89 1.446-.219.598-.945.871-1.043 1.531a.533.533 0 0 1-.129.246c-.566.61-.977 1.348-1.438 2.047Zm57.598-11.32c-.958.485-1.915 1.106-2.899 1.528-.445.167-.809.503-1.309.496-.03-.012-.093.015-.12.043-.423.437-1.044.523-1.567.765-.578.258-1.063.774-1.719.813-.293-.004-.523.105-.656.367-.063.133-.168.183-.324.23-.422.106-.832.235-1.246.325-.305.062-.563.3-.864.414-.523.191-1.023.425-1.433.832-.363-.047-.668.207-1.024.234-.086.004-.183-.016-.242.05-.21.29-.582.31-.848.509-.023.023-.07.058-.109.062-.5.043-.836.39-1.219.684-.55.406-1.3.324-1.789.804-.324.23-.718.313-.976.633-.067.082-.137.14-.246.153-.774.171-1.2.71-1.645 1.312-.27-.203-.441-.074-.648.16-1.36 1.727-.895 4.067-1.004 6.13.008.175-.031.37.012.542.175.945-.22 1.879-.051 2.844.047.64-.188 1.285-.063 1.937.098.489-.004 1.008-.11 1.489.13.41-.062.793-.105 1.195-.05.52-.035 1.047-.054 1.578-.004.344.004.695.05 1.043.055.281-.058.55-.125.82-.109.446-.046.887-.066 1.328-.004.106.027.204-.004.297-.187.61-.152 1.227-.258 1.848-.234.977.075 2.027-.234 2.973.05.625-.195 1.246-.156 1.851-.008.969.18 1.942.031 2.91-.223.04-.324-.066-.387-.175-.594-.946-.969-2.004-1.52-2.97-.515-.968-.89-1.987-1.456-2.91-.27-.546-.39-1.163-.743-1.675-1.32-2.895-2.558-5.828-3.984-8.676a79.03 79.03 0 0 1-2.363-4.75c-.465-.867-1.008-1.672-1.492-2.523-.153-.301-.332-.575-.657-.727-.441-.406-.894-.828-1.378-1.215-.09-.086-.223-.152-.336-.125-.247.051-.47-.047-.696-.093-.832-.149-1.715-.055-2.449.386-.328.23-.734.344-1.113.48-.653.216-1.137.731-1.832.88-.262.093-.532.168-.762.328-.605.422-1.316.613-2 .867-1.594.652-3.258 1.172-4.8 1.98-.735.149-1.47.313-2.098.746-.262.2-.586.133-.86.258-.71.332-1.476.535-2.152.953-.067.043-.149.082-.23.07-.223-.011-.403.098-.583.204-.875.308-1.71.746-2.582 1.09-.203.082-.218.457-.476.398-.399-.094-.68.153-1.059.188-.117-.2-.027-.395.063-.551.238-.363.359-.79.535-1.176.07-.2.148-.414.328-.574.156-.137.125-.336.125-.527.48-.172.332-.817.742-1.082.09-.055.094-.16.125-.25.14-.333.516-.56.5-.985.977-.543.98-1.879 1.774-2.578.226-.477.75-.77.863-1.32.027-.125.058-.254.168-.32.289-.173.43-.465.656-.696a.812.812 0 0 0 .227-.629c.703-.265.093-.68.699-1.012.695-.476.578-1.441 1.242-1.925.125-.11.234-.211.27-.407.039-.539.656-.75.773-1.261.027-.078.063-.168.145-.207.582-.309.546-.98.851-1.477.313-.476.418-1.047.715-1.531.453-.91 1.062-1.727 1.574-2.602.13-.261.34-.36.63-.394.413-.04.42-.055.515-.453.136-.383-.012-.786.004-1.16.14-.524-.29-.82-.57-1.149-.235-.5-.762-.762-1.044-1.23-.644-.426-.988-1.141-1.59-1.641-.437-.367-.812-.816-1.16-1.29-.238-.296-.562-.5-.73-.855-.582-.214-.73-.894-1.277-1.164-.352-.457-.75-.843-1.11-1.289-.433-.61-1.027-1.086-1.457-1.71-.336-.368-.746-.673-.89-1.176-.118-.532-.7-.743-.95-1.2-.246-.523-.625-.957-.894-1.453-.067-.199-.168-.39-.332-.52-.364-.288-.575-.714-.922-.995-.703-.641-1.113-1.52-1.844-2.133-.148-.106-.187-.293-.191-.52.644-.34 1.328.117 1.992-.039.039-.004.094-.015.125-.004.445.211.926.13 1.394.176.414.05.786.324 1.215.184.813.16 1.66.172 2.461.394.215.078.473.086.711.051.813-.031 1.55.41 2.356.496 1.242.16 2.468.414 3.656.777 2.738.723 5.527 1.309 8.355 1.508.348.004.758.016 1.063-.152.754-.594 1.668-.953 2.387-1.594.28-.246.593-.441.785-.773.035-.09.129-.16.21-.2.915-.414 1.415-1.308 2.184-1.894 1.305-.86 2.098-2.274 3.32-3.2.645-.527 1.192-1.16 1.704-1.808.101-.137.214-.25.386-.293.5-.18.614-.832 1.145-1.004a9.324 9.324 0 0 0 1.238-1.3.867.867 0 0 1 .258-.274c.676-.375 1.207-.93 1.75-1.46.781-.86 1.691-1.552 2.66-2.208.215-.25.516-.367.809-.5.41-.406.922-.48 1.453-.512.117.059.129.168.098.258-.176.91.023 1.836-.083 2.75-.035.664-.207 1.328-.125 2.004.036.238-.027.457-.082.7-.113.546-.296 1.105-.218 1.69.023.18.007.364-.04.54-.18.68-.18 1.394-.41 2.074-.066.184-.05.379-.074.578-.02.152-.008.313-.11.445-.01.032-.046.09-.042.125.066.477-.168.93-.113 1.399-.051.762-.305 1.504-.204 2.27.055.558-.308 1.035-.218 1.605.023.355-.145.676-.172 1.031-.008.309-.035.629-.215.926-.129.215-.039.492-.094.73-.082.422-.308.844-.18 1.309.024.074-.011.168-.054.238-.219.406-.266.824-.207 1.281.168.825.02 1.758.66 2.426.672 1.063 1.121 1.262 2.313 1.61 1.07.3 2.128.777 3.246.906.324.012.644.043.914.246.082.066.183.066.273.066.55.008 1.164-.011 1.684.23.925.462 1.992.348 2.949.731.82.075 1.648.184 2.441.492.489.176.996.258 1.512.325 1.152.316 2.305.722 3.496.93.219.027.453.042.625.19.567.208 1.192.263 1.79.43.37.032.577.368.952.383.29.016.407.27.52.485.058.125-.024.25-.149.308-.707.317-1.218.91-1.93 1.242Zm.238 2.637c.105-.192.293-.328.562-.402-.187.226-.355.304-.562.402Zm0 0"/></g></g></g><path d="M336.394 778.004c14.11 2.344 31.625-9.746 44.328-23.347.23-1.383-1.348-2.86-2.336-3.024-12.555 12.711-27.64 20.543-40.168 18.461-6.906-1.144-9.324-4.894-8.34-10.812 3.164-19.04 30.785-42.528 42.524-40.574 2.566.425 3.898 2.168 3.441 4.93-.984 5.917-10.12 14.534-15.84 16.628 1.23 1.117 2.746 1.774 4.422 2.051 7.496 1.246 17.504-5.91 18.899-14.293 1.394-8.387-6.286-14.629-13.489-15.828-17.754-2.95-46.168 22.84-49.48 42.766-1.965 11.84 5.586 21.304 16.039 23.042Zm0 0" fill="#cb3327"/><path d="M377.706 779.234c.903 0 1.602-.2 1.602-.797 6.23-16.289 23.266-36.957 27.367-36.95.301 0 .5.2.496.5-.004 2.802-11.125 15.88-11.14 24.579-.012 5.7 4.28 10.508 8.48 10.516 5.7.011 15.715-8.774 25.942-24.653.003-1.402-1.793-2.605-2.793-2.605-7.922 11.484-16.235 18.87-19.536 18.863-1 0-1.496-.601-1.496-1.902.012-5.2 8.735-19.985 11.946-24.278.5-.3.699-.898.703-1.597.004-2.801-3.39-7.106-9.09-7.117-6-.012-18.824 14.668-26.348 27.05l-.597-.3c6.23-16.786 20.671-41.461 23.472-41.457.399-.2.602-.7.602-1.098.004-1.899-3.492-4.805-6.39-4.813-5.2-.007-30.286 47.446-30.305 59.348-.008 4.297 4.585 6.707 7.085 6.711Zm0 0" fill="#cb3327"/><path d="M441.312 727.755c.985-2.93 4.602-11.079 8.59-14.137.285-.133.461-.356.43-.652-.156-1.391-3.887-4.196-7.567-3.79-4.273.477-7.328 8.262-6.863 12.438.52 4.672 3.942 6.504 5.41 6.14Zm-10.965 48.808c7.852-.87 17.122-21.523 20.743-28.77-.157-1.39-2.078-2.386-3.07-2.273-7.13 13.672-12.133 22.078-15.81 22.485-1.19.132-1.812-.903-1.976-2.395-.754-6.758 5.969-25.012 9.426-27.41.363-.344.43-.652.387-1.05-.235-2.087-3.813-4.403-7.39-4.005-3.778.418-13.579 24.45-12.505 34.09.695 6.262 6.516 9.738 10.195 9.328Zm0 0" fill="#cb3327"/><path d="M452.509 773.628c8.363-1.523 16.421-23.117 19.433-30.578-.25-1.379-2.238-2.238-3.219-2.059-5.972 14.098-11.218 23.797-14.562 24.407-.984.18-1.734-.598-2.023-2.172-1.774-9.739 10.734-49.325 15.41-53.223.36-.27.5-.602.445-.895-.305-1.671-4.043-4.347-7.387-3.738-5.02.914-20.125 47.985-17.922 60.086.934 5.113 5.793 8.906 9.825 8.172Zm0 0" fill="#cb3327"/><path d="M501.017 730.694c-5.36 16.277-15.273 27.507-21.91 29.39-3.176.903-5.094-.738-5.832-3.336l-.082-.285c10.59-6.644 20.39-24.492 18.125-32.48-1.227-4.328-6.387-7.125-11.195-5.762-11.352 3.219-19.852 29.328-16.551 40.969 1.992 7.023 8.922 10.566 15.848 8.601 8.757-2.48 17.539-12.562 25-35.36-.383-1.347-2.442-2.01-3.403-1.737Zm-17.21-6.45c1.152-.328 1.796.114 2.097 1.172 1.336 4.715-5.973 20.715-13.14 25.867.21-10.246 5.847-25.566 11.042-27.039Zm0 0" fill="#cb3327"/></svg>